<?xml version="1.0" encoding="UTF-8"?>
<svg xmlns="http://www.w3.org/2000/svg" width="800" height="800" viewBox="0 0 800 800">
  <defs>
    <filter id="splash" x="-50%" y="-50%" width="200%" height="200%">
      <feGaussianBlur in="SourceGraphic" stdDeviation="5" result="blur"/>
      <feColorMatrix in="blur" mode="matrix" values="1 0 0 0 0  0 1 0 0 0  0 0 1 0 0  0 0 0 18 -7" result="splash"/>
    </filter>
  </defs>
  <g transform="translate(400,400)">
    <!-- Coffee cup -->
    <path d="M-100,-50 C-100,-80 100,-80 100,-50 L80,100 C80,130 -80,130 -80,100 Z" fill="#FFF" stroke="#8B4513" stroke-width="8"/>
    <!-- Saucer -->
    <path d="M-120,100 C-120,140 120,140 120,100" fill="none" stroke="#8B4513" stroke-width="8"/>
    <!-- Coffee splash -->
    <path d="M-60,-90 C-30,-150 30,-150 60,-90 C90,-120 120,-90 90,-60 C120,-30 90,0 60,-30 C30,0 -30,0 -60,-30 C-90,0 -120,-30 -90,-60 C-120,-90 -90,-120 -60,-90" fill="#8B4513" filter="url(#splash)"/>
    <!-- Coffee beans -->
    <g transform="translate(-80,60)" fill="#654321">
      <ellipse rx="15" ry="10" transform="rotate(30)"/>
    </g>
    <g transform="translate(80,60)" fill="#654321">
      <ellipse rx="15" ry="10" transform="rotate(-30)"/>
    </g>
  </g>
</svg>